<svg xmlns="http://www.w3.org/2000/svg" xmlns:xlink="http://www.w3.org/1999/xlink" width="738" zoomAndPan="magnify" viewBox="0 0 553.5 142.499996" height="190" preserveAspectRatio="xMidYMid meet" version="1.0"><defs><g/><clipPath id="dac94b6e1a"><path d="M 0.398438 7 L 84 7 L 84 89 L 0.398438 89 Z M 0.398438 7 " clip-rule="nonzero"/></clipPath><clipPath id="cc974d4751"><rect x="0" width="234" y="0" height="117"/></clipPath></defs><g transform="matrix(1, 0, 0, 1, 228, 25)"><g clip-path="url(#cc974d4751)"><g clip-path="url(#dac94b6e1a)"><g fill="#ffffff" fill-opacity="1"><g transform="translate(3.547376, 88.76572)"><g><path d="M 31.21875 0 L -2.75 -81 L 18.0625 -81 L 38.484375 -27.78125 L 58.90625 -81 L 79.734375 -81 L 45.75 0 Z M 31.21875 0 "/></g></g></g></g><g fill="#ffffff" fill-opacity="1"><g transform="translate(73.651173, 88.76572)"><g><path d="M 10.65625 -5.984375 C 5.0625 -10.960938 2.265625 -17.34375 2.265625 -25.125 C 2.265625 -32.914062 5.175781 -39.316406 11 -44.328125 C 16.820312 -49.335938 24.019531 -51.84375 32.59375 -51.84375 C 41.039062 -51.84375 48.160156 -49.320312 53.953125 -44.28125 C 59.742188 -39.238281 62.640625 -32.851562 62.640625 -25.125 C 62.640625 -17.40625 59.804688 -11.039062 54.140625 -6.03125 C 48.484375 -1.03125 41.300781 1.46875 32.59375 1.46875 C 23.5625 1.46875 16.25 -1.015625 10.65625 -5.984375 Z M 24.109375 -33.671875 C 21.847656 -31.453125 20.71875 -28.609375 20.71875 -25.140625 C 20.71875 -21.671875 21.796875 -18.835938 23.953125 -16.640625 C 26.117188 -14.453125 28.96875 -13.359375 32.5 -13.359375 C 35.90625 -13.359375 38.703125 -14.46875 40.890625 -16.6875 C 43.085938 -18.914062 44.1875 -21.734375 44.1875 -25.140625 C 44.1875 -28.609375 43.054688 -31.453125 40.796875 -33.671875 C 38.535156 -35.898438 35.769531 -37.015625 32.5 -37.015625 C 29.164062 -37.015625 26.367188 -35.898438 24.109375 -33.671875 Z M 24.109375 -33.671875 "/></g></g></g><g fill="#ffffff" fill-opacity="1"><g transform="translate(138.355327, 88.76572)"><g><path d="M 5.890625 0 L 5.890625 -84.4375 L 23.265625 -84.4375 L 23.265625 0 Z M 5.890625 0 "/></g></g></g><g fill="#ffffff" fill-opacity="1"><g transform="translate(167.516387, 88.76572)"><g><path d="M 10.65625 -5.984375 C 5.0625 -10.960938 2.265625 -17.34375 2.265625 -25.125 C 2.265625 -32.914062 5.175781 -39.316406 11 -44.328125 C 16.820312 -49.335938 24.019531 -51.84375 32.59375 -51.84375 C 41.039062 -51.84375 48.160156 -49.320312 53.953125 -44.28125 C 59.742188 -39.238281 62.640625 -32.851562 62.640625 -25.125 C 62.640625 -17.40625 59.804688 -11.039062 54.140625 -6.03125 C 48.484375 -1.03125 41.300781 1.46875 32.59375 1.46875 C 23.5625 1.46875 16.25 -1.015625 10.65625 -5.984375 Z M 24.109375 -33.671875 C 21.847656 -31.453125 20.71875 -28.609375 20.71875 -25.140625 C 20.71875 -21.671875 21.796875 -18.835938 23.953125 -16.640625 C 26.117188 -14.453125 28.96875 -13.359375 32.5 -13.359375 C 35.90625 -13.359375 38.703125 -14.46875 40.890625 -16.6875 C 43.085938 -18.914062 44.1875 -21.734375 44.1875 -25.140625 C 44.1875 -28.609375 43.054688 -31.453125 40.796875 -33.671875 C 38.535156 -35.898438 35.769531 -37.015625 32.5 -37.015625 C 29.164062 -37.015625 26.367188 -35.898438 24.109375 -33.671875 Z M 24.109375 -33.671875 "/></g></g></g></g></g><path fill="#f1223c" d="M 185.960938 94.195312 C 185.585938 94.019531 185.59375 94.011719 185.558594 94.003906 C 185.320312 93.945312 180.90625 99.414062 180.222656 105.929688 C 178.902344 118.511719 184.140625 124.066406 183.984375 124.773438 C 183.90625 125.113281 173.632812 133.132812 155.523438 133.121094 C 144.726562 133.113281 131.171875 134.375 117.605469 126.351562 C 116.398438 125.636719 115.769531 125.5625 116.527344 124.394531 C 121.839844 116.195312 121.933594 105.890625 118.667969 98.484375 C 118.097656 97.1875 115.980469 94.050781 115.769531 93.992188 C 115.003906 93.78125 115.894531 95.1875 116.390625 97.628906 C 119.953125 115.117188 109.371094 128.28125 106.664062 128.25 C 103.007812 128.207031 85.304688 104.628906 98.804688 83.71875 C 100.007812 81.855469 101.359375 81.953125 100.230469 80.109375 C 93.972656 69.867188 92.359375 53.285156 101.394531 40.105469 C 102.308594 38.773438 101.546875 38.71875 100.503906 37.511719 C 98.605469 35.308594 97.550781 31.859375 98.640625 30.457031 C 99.441406 29.429688 106.082031 32.578125 103.871094 30.144531 C 97.371094 22.988281 94.011719 12.15625 95.773438 9.59375 C 98.664062 5.378906 117.394531 28.367188 134.988281 22.585938 C 155.054688 15.992188 168.421875 23.011719 170.667969 23.359375 C 186.386719 25.78125 202.167969 8.890625 206.664062 9.160156 C 207.183594 9.191406 209.113281 9.308594 207.433594 15.59375 C 204.753906 25.617188 198.464844 30.394531 199.007812 31 C 199.917969 32.011719 205.4375 27.6875 204.714844 32.773438 C 203.902344 38.472656 199.734375 38.152344 201.074219 40.113281 C 210.164062 53.386719 207.484375 68.71875 203.996094 76.152344 C 202.1875 80.003906 200.519531 81.097656 201.371094 82.089844 C 205.933594 87.410156 212.421875 104.101562 199.949219 122.011719 C 195.035156 129.066406 193.839844 128.332031 193.519531 128.257812 C 188.945312 127.207031 179.667969 109.40625 185.960938 94.195312 Z M 185.960938 94.195312 " fill-opacity="1" fill-rule="evenodd"/><path fill="#fdfdfd" d="M 180.957031 36.765625 C 203.503906 41.78125 205.9375 75.839844 182.960938 83.925781 C 174.046875 87.0625 154.929688 81.96875 155.820312 58.484375 C 156.015625 53.269531 161.179688 33.960938 180.957031 36.765625 Z M 180.957031 36.765625 " fill-opacity="1" fill-rule="evenodd"/><path fill="#fdfdfd" d="M 113.207031 40.441406 C 125.496094 31.882812 137 38.246094 141.71875 44.832031 C 156.519531 65.5 136.4375 93.722656 114.898438 82.011719 C 102.589844 75.316406 97.5625 53.011719 113.207031 40.441406 Z M 113.207031 40.441406 " fill-opacity="1" fill-rule="evenodd"/><path fill="#f0223c" d="M 166.664062 57.054688 C 166.753906 56.765625 166.808594 56.464844 166.894531 56.175781 C 169.667969 46.929688 176.128906 47.742188 178.875 51.964844 C 186.625 63.890625 174.894531 79.457031 168.546875 68.558594 C 165.523438 63.375 166.34375 59.5 166.664062 57.054688 Z M 166.664062 57.054688 " fill-opacity="1" fill-rule="evenodd"/><path fill="#f1223c" d="M 122.320312 54.453125 C 128.890625 40.785156 138.707031 54.78125 135.472656 64.753906 C 130.351562 80.546875 117.082031 68.242188 122.320312 54.453125 Z M 122.320312 54.453125 " fill-opacity="1" fill-rule="evenodd"/><path fill="#fdfcfc" d="M 154.417969 77.515625 C 158.367188 79.226562 156.890625 81.328125 153.726562 87.589844 C 152.101562 90.804688 150.9375 93.035156 149.136719 89.683594 C 144.605469 81.257812 143.886719 78.585938 147.542969 77.394531 C 150.3125 76.492188 153.886719 77.382812 154.417969 77.515625 Z M 154.417969 77.515625 " fill-opacity="1" fill-rule="evenodd"/><path fill="#fdfbfb" d="M 162.941406 100.359375 C 165.734375 100.546875 164.699219 102.808594 166.113281 103.605469 C 168.683594 105.050781 168.203125 100.480469 170.675781 100.335938 C 173.894531 100.152344 172.765625 105.453125 169.738281 107.222656 C 163.644531 110.78125 158.210938 101.476562 162.941406 100.359375 Z M 162.941406 100.359375 " fill-opacity="1" fill-rule="evenodd"/><path fill="#fdfbfb" d="M 137.550781 100.375 C 142.542969 102.117188 134.839844 112.449219 129.015625 105.863281 C 127.71875 104.394531 126.582031 100.527344 129.527344 100.3125 C 131.976562 100.136719 131.527344 104.929688 134.105469 103.648438 C 135.609375 102.902344 134.589844 100.371094 137.550781 100.375 Z M 137.550781 100.375 " fill-opacity="1" fill-rule="evenodd"/><path fill="#fcfafb" d="M 155.445312 104.167969 C 155.167969 104.675781 152.949219 108.738281 149.234375 107.945312 C 143.378906 106.695312 143.371094 99.125 146.972656 100.4375 C 148.90625 101.140625 148.472656 104.894531 150.941406 103.609375 C 151.75 103.191406 152.578125 99.207031 154.910156 100.566406 C 156.792969 101.660156 155.542969 103.90625 155.445312 104.167969 Z M 155.445312 104.167969 " fill-opacity="1" fill-rule="evenodd"/><path fill="#fdfbfb" d="M 146.339844 114.296875 C 146.617188 114.550781 148.339844 115.089844 146.859375 118.152344 C 143.679688 124.726562 135.996094 120.792969 135.894531 116.203125 C 135.863281 114.765625 138.5625 112.03125 140.039062 116.222656 C 140.609375 117.835938 142.652344 118.167969 143.457031 115.894531 C 144.167969 113.902344 145.085938 113.988281 146.339844 114.296875 Z M 146.339844 114.296875 " fill-opacity="1" fill-rule="evenodd"/><path fill="#fdfbfb" d="M 162.894531 114.328125 C 166.679688 117.195312 159.0625 125.59375 153.859375 119.59375 C 153.464844 119.140625 151.964844 116.574219 152.507812 115.390625 C 153.316406 113.636719 155.667969 113.710938 156.328125 115.648438 C 157.507812 119.109375 159.5 117.085938 159.84375 116.21875 C 160.496094 114.570312 160.878906 113.769531 162.894531 114.328125 Z M 162.894531 114.328125 " fill-opacity="1" fill-rule="evenodd"/></svg>