<?xml version="1.0" encoding="UTF-8" standalone="no"?><svg width="100%" height="100%" viewBox="0 0 2000 2000" version="1.1" xmlns="http://www.w3.org/2000/svg" xmlns:xlink="http://www.w3.org/1999/xlink" xml:space="preserve" xmlns:serif="http://www.serif.com/" style="fill-rule:evenodd;clip-rule:evenodd;stroke-linejoin:round;stroke-miterlimit:2;"><g><path d="M1470.755,1310.154c-5.035,-2.394 -4.97,-2.47 -5.438,-2.585c-3.211,-0.789 -62.527,72.757 -71.723,160.357c-17.761,169.194 52.679,243.894 50.572,253.386c-1.025,4.619 -139.197,112.442 -382.699,112.282c-145.191,-0.096 -327.507,16.864 -509.912,-91.055c-16.251,-9.615 -24.688,-10.601 -14.522,-26.285c71.471,-110.255 72.719,-248.824 28.813,-348.43c-7.68,-17.422 -36.16,-59.647 -38.979,-60.423c-10.331,-2.842 1.683,16.09 8.363,48.889c47.897,235.183 -94.439,412.225 -130.82,411.789c-49.166,-0.589 -287.22,-317.624 -105.697,-598.806c16.169,-25.046 34.355,-23.76 19.205,-48.549c-84.171,-137.722 -105.87,-360.734 15.64,-537.933c12.306,-17.946 2.031,-18.683 -11.959,-34.892c-25.566,-29.619 -39.76,-76.032 -25.091,-94.855c10.756,-13.802 100.08,28.523 70.339,-4.221c-87.395,-96.221 -132.56,-241.876 -108.901,-276.348c38.9,-56.679 290.784,252.478 527.356,174.734c269.858,-88.683 449.571,5.699 479.783,10.357c211.389,32.586 423.587,-194.563 484.077,-190.917c6.958,0.419 32.908,1.983 10.317,86.517c-36.026,134.804 -120.586,199.029 -113.279,207.161c12.207,13.586 86.461,-44.545 76.733,23.856c-10.904,76.662 -66.992,72.341 -48.956,98.675c122.259,178.507 86.186,384.673 39.292,484.655c-24.304,51.817 -46.745,66.493 -35.28,79.857c61.35,71.519 148.606,295.994 -19.128,536.83c-66.075,94.871 -82.173,84.992 -86.471,84.003c-61.506,-14.148 -186.264,-253.491 -101.635,-458.05Z" style="fill:#f1223c;"/><path d="M1403.463,537.846c303.163,67.484 335.923,525.484 26.948,634.197c-119.853,42.17 -376.93,-26.293 -364.99,-342.132c2.65,-70.111 72.102,-329.774 338.043,-292.064Z" style="fill:#fdfdfd;"/><path d="M492.396,587.287c165.248,-115.077 319.976,-29.5 383.4,59.053c199.055,277.927 -71.036,657.456 -360.665,499.94c-165.526,-90.022 -233.122,-389.966 -22.735,-558.994Z" style="fill:#fdfdfd;"/><path d="M1211.277,810.682c1.166,-3.892 1.924,-7.899 3.091,-11.791c37.266,-124.341 124.166,-113.438 161.072,-56.64c104.219,160.39 -53.502,369.698 -138.882,223.168c-40.641,-69.748 -29.638,-121.851 -25.281,-154.737Z" style="fill:#f0223c;"/><path d="M614.926,775.738c88.367,-183.801 220.386,4.38 176.893,138.498c-68.877,212.393 -247.33,46.886 -176.893,-138.498Z" style="fill:#f1223c;"/><path d="M1046.588,1085.822c53.069,23.044 33.251,51.288 -9.312,135.484c-21.868,43.259 -37.512,73.261 -61.744,28.184c-60.908,-113.304 -70.565,-149.242 -21.43,-165.257c37.276,-12.15 85.305,-0.198 92.486,1.589Z" style="fill:#fdfcfc;"/><path d="M1161.202,1393.044c37.561,2.503 23.633,32.945 42.654,43.637c34.565,19.43 28.106,-42.026 61.353,-43.938c43.259,-2.487 28.092,68.813 -12.599,92.568c-81.963,47.849 -155.017,-77.236 -91.408,-92.268Z" style="fill:#fdfbfb;"/><path d="M819.737,1393.242c67.153,23.443 -36.415,162.378 -114.75,73.784c-17.453,-19.739 -32.731,-71.753 6.882,-74.603c32.908,-2.367 26.902,62.072 61.555,44.846c20.212,-10.047 6.492,-44.089 46.313,-44.027Z" style="fill:#fdfbfb;"/><path d="M1060.396,1444.224c-3.747,6.867 -33.561,61.496 -83.531,50.832c-78.74,-16.804 -78.841,-118.624 -30.383,-100.977c25.966,9.456 20.126,59.961 53.345,42.663c10.85,-5.65 22.033,-59.181 53.393,-40.94c25.304,14.719 8.465,44.919 7.176,48.422Z" style="fill:#fcfafb;"/><path d="M937.953,1580.457c3.729,3.437 26.912,10.646 6.98,51.856c-42.754,88.396 -146.092,35.474 -147.44,-26.238c-0.422,-19.305 35.879,-56.073 55.74,0.295c7.639,21.681 35.109,26.152 45.972,-4.415c9.536,-26.831 21.861,-25.645 38.749,-21.499Z" style="fill:#fdfbfb;"/><path d="M1160.54,1580.852c50.915,38.589 -51.488,151.519 -121.476,70.857c-5.292,-6.1 -25.488,-40.644 -18.172,-56.522c10.888,-23.63 42.509,-22.622 51.378,3.421c15.856,46.56 42.622,19.365 47.249,7.683c8.778,-22.163 13.949,-32.916 41.021,-25.439Z" style="fill:#fdfbfb;"/></g></svg>